# xmcd
#
# Track frame offsets:
#	150
#	17034
#	35120
#	62728
#	80735
#	99190
#	115707
#	136258
#	154892
#	167190
#	187531
#	202602
#	217362
#	235242
#	254503
#	273197
#	293985
#	308746
#	321994
#
# Disc length: 4564 seconds
#
# Revision: 1
# Processed by: cddbd v1.5.1PL0 Copyright (c) Steve Scherf et al.
# Submitted via: audiograbber 1.83.01
#
DISCID=0d11d213
DTITLE=Desperado - Greatest shits
DYEAR=2004
DGENRE=Country
TTITLE0=Am cazanul meu
TTITLE1=Suntem de la tara
TTITLE2=Nu le dau carnetul
TTITLE3=Betivan ratat
TTITLE4=Sunr cowboy si sunt burlac
TTITLE5=Lenea
TTITLE6=Nu sunt de vina
TTITLE7=Vine o vreme
TTITLE8=Week-end la padure
TTITLE9=Oameni de treaba
TTITLE10=La fel ca tata
TTITLE11=Lasa-ma sa beau, muiere
TTITLE12=Hey-ho
TTITLE13=Fata de la tara
TTITLE14=Transylvania cowboy
TTITLE15=Cea mai buna
TTITLE16=Daca as fi primar
TTITLE17=Viata asta nu-i usoara
TTITLE18=Nu sunt cuvinte
EXTD=
EXTT0=
EXTT1=
EXTT2=
EXTT3=
EXTT4=
EXTT5=
EXTT6=
EXTT7=
EXTT8=
EXTT9=
EXTT10=
EXTT11=
EXTT12=
EXTT13=
EXTT14=
EXTT15=
EXTT16=
EXTT17=
EXTT18=
PLAYORDER=
